<?xml version="1.0" encoding="utf-8"?>
<!-- Generator: Adobe Illustrator 22.0.1, SVG Export Plug-In . SVG Version: 6.00 Build 0)  -->
<svg version="1.1" id="Layer_1" xmlns="http://www.w3.org/2000/svg" xmlns:xlink="http://www.w3.org/1999/xlink" x="0px" y="0px"
	 viewBox="0 0 662 51" style="enable-background:new 0 0 662 51;" xml:space="preserve">
<style type="text/css">
	.st0{fill:#B7B7B7;}
	.st1{fill:#5E5E5E;}
	.st2{fill:#6B6B6B;}
	.st3{fill:#6E6E6E;}
	.st4{fill:#606060;}
	.st5{fill:#6C6C6C;}
	.st6{fill:#6A6A6A;}
	.st7{fill:#696969;}
	.st8{fill:#616161;}
	.st9{fill:#717171;}
	.st10{fill:#5F5F5F;}
	.st11{fill:#5D5D5D;}
	.st12{fill:#6F6F6F;}
	.st13{fill:#515151;}
	.st14{fill:#363636;}
	.st15{fill:#636363;}
	.st16{fill:#7C7C7C;}
	.st17{fill:#646464;}
	.st18{fill:#4A4A4A;}
	.st19{fill:#545454;}
	.st20{fill:#828282;}
	.st21{fill:#555555;}
	.st22{fill:#7E7E7E;}
	.st23{fill:#7D7D7D;}
	.st24{fill:#707070;}
	.st25{fill:#414141;}
	.st26{fill:#7F7F7F;}
	.st27{fill:#6D6D6D;}
	.st28{fill:#787878;}
	.st29{fill:#818181;}
	.st30{fill:#878787;}
	.st31{fill:#CECECE;}
	.st32{fill:#8D8D8D;}
	.st33{fill:#FCFCFC;}
	.st34{fill:#5B5B5B;}
	.st35{fill:#E6E6E6;}
	.st36{fill:#B5B5B5;}
	.st37{fill:#626262;}
	.st38{fill:#9A9A9A;}
	.st39{fill:#A8A8A8;}
	.st40{fill:#C6C6C6;}
	.st41{fill:#D0D0D0;}
	.st42{fill:#848484;}
	.st43{fill:#676767;}
	.st44{fill:#ACACAC;}
	.st45{fill:#ADADAD;}
	.st46{fill:#A5A5A5;}
	.st47{fill:#F3F3F3;}
	.st48{fill:#797979;}
	.st49{fill:#DEDEDE;}
</style>
<g>
	<path class="st1" d="M190.1,26.3c-1.2,1.9-1.2,4.2-1.3,6.3c-0.1,2.2-0.8,4.2-1.4,6.3c-0.2,0.8-0.4,1.6-1.4,1.5
		c-0.8,0-1-0.7-1.2-1.3c-1.3-3.3-2.6-6.7-3.9-10c-0.4-1.1-0.8-2.2-1.8-3.1c-0.6,0.1-0.7,0.6-0.7,1c0.2,2.8,0.4,5.6,0.6,8.5
		c0.1,2,0.1,4.1,3,4.7c-2.1,2.2-4.4,1.9-6.7,1.8c-0.5,0-0.8-0.3-0.9-0.8c-0.2-0.7,0.1-1.3,0.8-1.5c1.4-0.4,1.5-1.4,1.4-2.6
		c-0.5-6-1.1-12-1.6-17.9c-0.1-1.3-0.1-2.4-1.9-2.4c-0.9,0-1.5-0.8-1.6-1.8c-0.1-1.2,0.7-1.9,1.6-2.2c2.1-0.7,4.3-0.5,6.4,0.3
		c0.9,0.3,1.2,1.2,1.4,2.1c0.8,4.4,3.3,8.3,4.3,12.7c0.1,0.6,0.5,1.4,1.3,1.2c0.8-0.1,0.8-0.9,0.9-1.6c0.4-4.3,2.1-8.5,2.1-12.9
		c0-1,1-1.6,1.7-2.3c1.5-1.5,6.1-1.4,7.5,0.1c1.4,1.5,1.1,3.3-0.8,3.8c-1.9,0.5-1.8,1.4-1.7,3c0.3,5.2,0.3,10.4,0.4,15.6
		c0,1.8-0.6,3.9,2.4,3.8c0.4,0,0.7,0.5,0.7,1c0,0.5-0.2,0.9-0.7,1c-2.9,0.5-5.8,0.8-8.8,0.3c-0.7-0.1-1.1-1.1-0.2-1.4
		c1.7-0.6,1.4-1.7,1.4-3.1c-0.1-2.7-0.1-5.4-0.3-8.1C190.5,27.9,191.9,26.1,190.1,26.3z"/>
	<path class="st2" d="M319.2,39.9c3.2-1.1,2.9-3.5,2.8-6c-0.1-3.8,0.1-7.7-0.9-11.8c-1.7,2.9-1.9,6-2.8,8.9
		c-0.6,2.1-0.9,4.3-1.4,6.4c-0.2,0.8,0,1.9-1.2,2.1c-1.2,0.1-1.2-1-1.5-1.8c-1.4-3.8-2.7-7.6-4.1-11.4c-0.3-0.7-0.5-1.5-1.3-1.9
		c-1,0.5-0.7,1.5-0.7,2.3c0.2,3.3,0.6,6.6,0.6,9.8c0,2,2,2.1,2.6,3.7c-2.1,1.1-4.2,1.2-6.4,1.2c-0.6,0-1-0.3-1.2-0.9
		c-0.2-0.6,0.1-1.1,0.7-1.2c1.9-0.3,1.6-1.6,1.7-3c0.2-3.7-0.5-7.4-0.7-11.1c-0.1-2.4-0.3-4.8-0.4-7.2c-0.1-1.2-0.2-2.2-1.7-2.2
		c-1.7-0.1-2.3-1.2-2.2-2.7c0.1-1.6,1.3-1.9,2.6-1.9c0.9,0,1.8-0.1,2.6,0c4.1,0.5,4.8,0.5,5.3,4.9c0.6,4.9,2.7,9.5,4.8,14.8
		c1-2.7,1.4-4.8,1.7-7c0.4-3.1,1.3-6,2-9c0.6-2.5,1-2.7,3.7-2.7c1.3,0,2.6-0.1,3.9-0.1c0.7,0,1.3,0.4,1.5,1.1
		c0.2,0.8-0.1,1.4-0.8,1.6c-2.7,0.6-2.4,2.6-2.4,4.7c0.1,5.1,0.1,10.3,0.1,15.4c0,1.6-0.1,3.3,2.4,3.4c1.1,0,0.9,1,0.2,1.7
		c-0.2,0.2-0.3,0.4-0.5,0.4C325.4,40.3,322.4,41.1,319.2,39.9z"/>
	<path class="st3" d="M231,38.1c-0.1-3.1-0.2-6.1-0.3-9.2c-0.1-2.4-0.2-2.5-2.7-2.5c-1.4,0-2.8-0.2-4.2,0.3c-2.7,0.9-3.9,2.3-3.1,5
		c0.5,1.7,0.8,3.4,0.6,5.1c-0.1,1.1,0.2,1.9,1.4,2.3c0.6,0.2,1.4,0.3,1.2,1.2c-0.2,0.7-0.9,1-1.5,1.1c-1.4,0.2-2.8,0.4-4.2,0.5
		c-1,0.1-2,0.1-2.9,0.2c-0.7,0.1-1.3,0.1-1.6-0.7c-0.2-0.7-0.2-1.6,0.4-1.7c2.1-0.6,1.7-2.1,1.5-3.7c-0.6-5.9-0.3-11.8-0.5-17.7
		c0-1.6-0.2-2.8-2-3.2c-0.3-0.1-0.6-0.3-0.8-0.5c-0.5-0.3-0.9-0.7-0.8-1.3c0.1-0.8,0.7-1.1,1.4-1.2c0.8-0.1,1.5-0.1,2.3-0.1
		c1.9,0,3.7,0,5.6,0.1c0.8,0,1.9,0,2.1,1.1c0.3,1-0.6,1.2-1.3,1.6c-0.7,0.4-1,1.1-1,1.9c0.1,2.1,0.2,4.3,0.2,6.4
		c0,0.6,0.2,1.1,0.8,1.2c2.7,0.3,5.5,0,8.2-0.1c0.6,0,1-0.7,0.8-1.2c-0.7-1.5,0-3-0.3-4.5c-0.3-1.6,0.2-3.5-2.1-4.3
		c-0.8-0.3-0.4-1.8,0.7-1.8c2.6,0,5.2-0.1,7.8-0.3c0.9-0.1,1.3,0.7,1.5,1.5c0.2,0.9-0.1,1.6-1,1.8c-2.3,0.3-2.1,2-1.8,3.5
		c0.4,2.1,0.4,4.1,0.2,6.2c-1.5,3.5,0.3,7.1-0.4,10.6C234.5,38.1,233.4,38.8,231,38.1z"/>
	<path class="st4" d="M593.5,17.2c2.5-0.2,5.2,0,7.9-0.4c2.3-0.3,3,0.4,3.2,2.7c0.1,1.5,0.1,3.1,0.1,4.6c0,0.7-0.2,1.3-1,1.5
		c-0.7,0.1-1.3-0.1-1.7-0.8c-0.2-0.3-0.3-0.6-0.4-0.9c-1.7-3.7-2.9-4.5-7-4.1c-1.9,0.2-2.5,0.8-2.5,2.7c0,1.6,0.3,3.3,0.4,4.9
		c0.1,1.1,0.4,2,1.7,2c1.3,0.1,2.5-0.1,3-1.5c0.3-0.8,0.5-1.7,0.7-2.5c0.2-0.5,0.5-1,1.2-0.9c0.4,0.1,0.7,0.5,0.8,1
		c0.2,1.6,0.8,3.2,0.7,4.9c-0.1,1.6-0.5,3.2,0,4.9c0.2,0.7,0.1,1.7-0.9,1.8c-0.9,0.2-1.4-0.5-1.5-1.3c-0.1-0.7-0.2-1.5-0.5-2.2
		c-0.8-1.4-2-1.6-3.3-1.4c-1.6,0.2-1.5,1.4-1.5,2.5c0,2.1,0.1,4.2,0.1,6.2c0,1.6,0.8,2.5,2.4,2.4c1.6-0.1,3.3-0.3,4.9-0.6
		c1.3-0.2,2-1.2,2.4-2.4c0.3-0.8,0.6-1.7,0.8-2.5c0.1-0.5,0.5-0.8,0.9-0.8c0.5,0,0.9,0.3,1,0.7c0.8,2.2,0.8,4.5,0.4,6.8
		c-0.1,1-1.1,0.9-1.9,0.9c-2.1,0-4.2,0-6.2,0c-3.3,0-6.5,0.3-9.8,0.8c-2,0.3-2.5-0.3-2-2.3c0.1-0.3,0.1-0.7,0.3-0.9
		c2.1-2.6,1.4-5.6,1-8.4c-0.5-3.7-0.5-7.4-0.5-11.1c0-1.3,0.2-2.7-1.5-3.2c-0.7-0.2-1.2-0.7-1.1-1.4c0.1-1,1-1.5,1.9-1.5
		c1.2-0.1,2.4,0,3.6,0C590.8,17.2,592,17.2,593.5,17.2z"/>
	<path class="st5" d="M439.7,24.1c0.2,5,0.5,10,0.7,15c0,1.3,0.7,1.7,1.8,1.8c0.8,0,1.6,0.1,1.6,1.2c0,1-1,1.1-1.7,1.2
		c-2.2,0.4-4.3,0.6-6.5,0.9c-0.9,0.1-1.8-0.1-2-1.2c-0.2-1.1,0.4-1.8,1.6-2.1c2.4-0.6,2.4-0.7,2.3-3.1c-0.3-5.2-0.2-10.5-0.7-15.7
		c-0.3-3.2-0.2-3.2-3.3-4.1c-1.2-0.3-2.4-0.8-2.1-2.4c0.2-1.3,1.3-1.9,3.1-1.4c1.1,0.3,2,0.6,3.2,0.2c1.9-0.7,3.1,0.3,4,1.9
		c3.1,5.5,7.3,10.2,10.7,15.5c0.3-0.1,0.7-0.2,0.7-0.3c0.3-3.8,0-7.6,0-11.5c0-1.4-0.6-2.3-2-2.6c-0.8-0.2-1.5-0.5-1.3-1.5
		c0.2-0.7,0.8-0.9,1.5-0.9c1.7,0,3.5-0.1,5.2-0.1c0.7,0,1.6,0.2,1.8,1.1c0.2,1.1-0.7,1.3-1.4,1.4c-1.5,0.2-1.6,1.2-1.6,2.4
		c-0.1,2.1,0.2,4.1,0.3,6.2c0.3,4.8,0.4,9.6,0.6,14.4c0,0.8,0.2,1.7-0.7,2c-1,0.4-1.6-0.4-2.1-1.1c-2.7-3.8-5.4-7.7-8.1-11.5
		c-1.5-2-3-4-4.6-5.9C440.2,24,439.9,24,439.7,24.1z"/>
	<path class="st6" d="M420.1,36.8c0.2,0.7,0.5,1.5,0.6,2.2c0.1,1.8-0.7,2.6-2.4,2.6c-5.3,0-10.7,0-15.9,1.5c-0.8,0.2-1.5,0.1-2-0.6
		c-0.5-0.7-0.4-1.7,0.3-2.1c2.9-1.8,2-4.6,1.5-6.8c-1-4.3-0.7-8.6-0.9-12.9c-0.1-1.6,0.1-3.3-2.1-3.9c-0.9-0.3-1-1.4-0.8-2.3
		c0.2-1.1,1.1-1.3,2-1.3c2.1,0,4.2,0.1,6.2,0.2c3.3,0.2,6.5,0.6,9.7-0.6c1.4-0.5,2.4,0.1,2.5,1.6c0.2,2.1,0.2,4.1,0.2,6.2
		c0,0.7-0.2,1.3-1.1,1.4c-0.6,0-1-0.3-1.2-0.9c-0.1-0.3-0.2-0.6-0.3-0.9c-1.4-3.6-4.9-5.2-8.4-3.7c-0.9,0.3-1.1,0.9-1.1,1.8
		c0.1,1.7,0.1,3.5,0.2,5.2c0,1,0.1,2.1,1.4,2.2c1.3,0.1,2.6,0,3.4-1.4c0.4-0.8,0.4-1.7,0.6-2.5c0.1-0.5,0.5-0.7,0.9-0.7
		c0.5,0,0.7,0.4,0.8,0.9c0.2,3.4,0.5,6.7,0.7,10.1c0,0.6-0.3,1.1-0.9,1.1c-0.6,0-1-0.5-1.1-1c-0.1-0.5-0.1-1.1-0.3-1.6
		c-0.6-2-2.5-2.9-4.4-2.1c-0.7,0.3-1,0.9-0.9,1.6c0.4,2.4,0.2,4.8,0.3,7.2c0.1,1.6,0.9,2.3,2.5,2.3c2.5-0.1,5-0.1,7.3-1.4
		C418.2,37.4,418.4,35.7,420.1,36.8z"/>
	<path class="st7" d="M495.6,36.8c0,0.5,0.1,1.1,0.1,1.6c-0.2,2.3-0.4,2.6-2.7,2.7c-2.8,0.1-5.7,0.1-8.5,0.1c-2.2,0-4.4,0.2-6.5,0.7
		c-0.8,0.2-1.8,0.6-2.3-0.5c-0.4-0.9-0.2-1.7,0.8-2.2c1.1-0.5,1.3-1.4,1.1-2.5c-0.5-2.8,0-5.7-1.1-8.4c-0.2-0.5-0.2-1-0.1-1.6
		c0.5-2,0.2-4.1,0.2-6.2c0-1.9,0-3.7-2.3-4.5c-0.9-0.3-1.3-1.2-1-2.2c0.2-1,1-1.4,1.9-1.5c1-0.1,2-0.2,2.9,0
		c1.7,0.5,3.2,0.1,4.9-0.1c2.4,0.8,4.3-1.1,6.8-1c4.1,0.1,4.3-0.2,4.4,3.7c0,0.6-0.3,1.3,0.1,1.9c0,1.1-0.1,2.2-0.2,3.3
		c-0.1,0.6-0.4,1-1,1.1c-0.6,0.1-1-0.2-1.3-0.8c-0.2-0.4-0.4-0.8-0.5-1.2c-0.3-1.4-0.6-2.9-2.2-3.4c-1.9-0.5-3.9-0.5-5.8-0.1
		c-0.9,0.2-1.1,1.1-1.1,1.8c-0.1,1.6,0,3.3,0,4.9c0,1.2,0.2,2.2,1.7,2.3c1.8,0.2,2.7-0.4,3.4-1.8c0.4-0.9,0-2.7,1.4-2.6
		c1.5,0.2,1,1.9,1.1,3c0.2,2.3,0.2,4.6,0.4,6.9c0,0.8,0.1,1.7-0.7,2c-1.2,0.3-1.3-0.9-1.6-1.6c-1-2.5-1.9-3.3-3.8-3.2
		c-1.2,0-1.9,0.5-1.8,1.8c0.2,2.5,0.3,5,0.5,7.5c0.1,1.3,0.7,1.9,2.1,2c2.7,0.1,5.2-0.1,7.6-1.5c0.1-0.1,0.2-0.3,0.3-0.4
		c0.1-0.2,0.2-0.4,0.3-0.6C494.2,34.8,495,35,495.6,36.8z"/>
	<path class="st8" d="M254.5,32.9c-0.4-3.9,0.2-7.9-0.4-11.8c-0.2-1.4-0.2-2.6-1.9-3.4c-1.5-0.7-1.1-2.6,0.5-3.2
		c0.9-0.3,1.7-0.2,2.6-0.1c4.8,0.5,9.5,0.9,14.4,0.3c1.7-0.2,2.6,0.6,2.5,2.2c-0.1,1.7,0,3.3,0.1,4.9c0.1,0.8-0.1,1.6-1,1.8
		c-1,0.3-1.7-0.3-2-1.2c-0.1-0.2-0.2-0.4-0.2-0.6c-0.4-3.2-2.6-3.9-5.4-4c-3.3-0.1-3.9,0.3-3.9,3.5c0,1.2,0,2.4,0,3.6
		c0,1.2,0.4,2.1,1.8,2.3c1.7,0.2,2.9-0.4,3.3-1.8c0.2-0.6,0.2-1.3,0.4-1.9c0.2-0.6,0.6-0.9,1.2-0.8c0.5,0.1,0.8,0.5,0.8,0.9
		c0.1,3.6,0.5,7.2,0.3,10.8c0,0.4-0.2,0.9-0.7,1c-0.7,0.3-0.9-0.3-1.3-0.7c-0.7-0.8-0.6-1.8-0.8-2.8c-0.3-1.4-1.3-2-2.6-2
		c-1.4,0-2.4,0.8-2.1,2.2c0.5,2.3,0.3,4.6,0.4,6.9c0,1.4,0.6,2,2,2c1,0,2,0,3,0c3.9-0.2,4.1-0.3,4.8-4.3c0.2-0.9,0.2-1.8,1.5-1.7
		c1,0.1,1.1,0.9,1.1,1.7c0,1.6,0,3.3,0,4.9c0,1.4-0.7,1.9-2,1.9c-5.4-0.1-10.7-0.2-16,0.6c-0.9,0.1-1.5-0.1-1.7-1.1
		c-0.3-1.5,0.8-1.9,1.9-2.2c1.2-2.3,0.5-5.2,2.7-7.1c0.2-0.3-0.5-0.5-0.2-0.3c0.1,0-0.1,0.4-0.3,0.5C255.6,35.4,255,34.4,254.5,32.9
		z"/>
	<path class="st5" d="M42.5,35.4c-0.6-1-1.4-1.2-2.5-0.8c-5.7,2.3-10.4,0.6-14.5-3.5c-0.3-0.3-0.6-0.6-0.9-0.9l0,0
		c-0.7-1.1-1.4-2.2-2-3.3c-1.3-4.1-1.5-8.1-0.1-12.2c1.8-5.1,7-9.9,14.4-8.8c0.7,0.1,1.2,0.4,1.8,0.7c1.1,0.7,2.3,1.2,3.6,0.3
		c0.9-0.6,1.4,0.3,1.9,0.8c-0.2,2.1-0.6,4,1,6c1.7,2.3-0.1,4.4-3.4,4.4c-1.5-0.2-2.2-1.1-2.7-2.5c-0.3-0.8-0.4-1.7-0.6-2.5
		C37.9,11.4,37,9.9,35,9.7c-2.2-0.2-3.3,1.4-4.1,3.2c-1.4,3.4-0.5,6.9-0.4,10.3c0,0.5,0.3,1.1,0.4,1.6c0.1,0.7-0.1,1.4,0.1,2.1
		c0.1,0.3,0.2,0.5,0.3,0.8c0.6,0.6,1.3,1.1,2,1.6c2.4,1.5,4.4,1,5.7-1.5c0.7-1.5,1.1-3.1,2.1-4.4c1.1-1.5,2.7-1.4,4.1-0.6
		c1.4,0.9,1.7,2.2,0.2,3.5c-0.8,2.2-0.5,4.5-0.4,6.8C45.2,35.3,45.1,35.4,42.5,35.4z"/>
	<path class="st9" d="M553,20.2c-0.4,2.3-0.2,4.1,0,5.9c0.5,3.3,0.6,6.5,0.7,9.8c0,1.4,0.3,2.7,2.2,2.4c0.8-0.1,1.6,0.2,1.6,1.2
		c-0.1,1-0.9,1.1-1.7,1.2c-2.1,0.2-4.1,0.5-6.2,0.7c-0.9,0.1-1.8-0.2-2-1.2c-0.2-1,0.6-1.4,1.4-1.5c2.4-0.1,2.3-1.7,2.3-3.5
		c0.1-5.9-1.1-11.8-1.3-17.7c0-1.5-0.8-2.5-2.5-2.3c-0.4,0-0.9,0.1-1.3-0.1c-0.6-0.2-1.2-0.6-1.2-1.4c-0.1-0.8,0.5-1.2,1.1-1.4
		c0.9-0.2,1.9-0.5,2.9-0.4c0.9,0.1,1.8,0.4,2.6,0.2c1.9-0.3,2.8,0.7,3.6,2.1c2.8,4.9,6.8,8.8,9.6,13.6c0.2,0.3,0.6,0.5,1,0.8
		c1-0.5,0.6-1.4,0.6-2.1c0-2.8,0-5.7-0.1-8.5c0-1.9,0.1-3.9-2.6-4.1c-0.4,0-0.7-0.5-0.6-1c0.1-0.5,0.4-0.8,0.9-0.8
		c2.2-0.4,4.4-0.3,6.5,0c0.5,0.1,0.8,0.5,0.7,1c-0.1,0.3-0.4,0.7-0.6,0.7c-2.9,0-2.6,2-2.4,3.8c0.4,6,0.9,12,1.3,18
		c0.1,1.3,1,3.2-0.6,3.9c-1.7,0.7-2.3-1.4-3-2.4c-3.5-4.8-7.4-9.2-10.6-14.2C554.9,22,554.3,21.1,553,20.2z"/>
	<path class="st10" d="M121.8,26.4c-0.2,4-2,8.5-7.1,11.2c-5.1,2.7-11.9,0.6-15.4-3.9c-3.5-4.6-3.3-14.7,0.3-19.1
		c4.9-6.1,13-6.4,18-0.3C120.7,18.2,121.8,20.8,121.8,26.4z"/>
	<path class="st11" d="M79.6,40.2c-2.2-0.6-5.2-0.3-8.1-0.2c-0.8,0-1.7,0.1-1.9-0.8c-0.2-0.9,0.7-0.9,1.3-1.1
		c1.4-0.5,1.7-1.7,1.3-2.9c-0.5-1.4-0.8-3.1-2.6-3.4c-0.5-0.1-1.1,0-1.6,0c-4,0-4,0-4.9,3.9c-0.4,1.5-0.5,2.6,1.5,2.7
		c0.5,0,0.8,0.4,0.7,0.9c0,0.5-0.4,0.9-0.8,0.9c-2,0.1-3.8,0.7-5.7,1.2c-0.5,0.1-1.1-0.1-1.6-0.3c-0.7-0.2-1-0.8-1-1.5
		c0.1-0.6,0.5-1.1,1-1.1c2.3,0.1,2.6-1.6,3-3.2c1.9-7.4,4.8-14.5,5.9-22.1c0.2-1.4,0.9-2.2,2.3-2.3c1.5,0,2,1,2.2,2.3
		c1.6,7.9,4.8,15.4,7.3,23c0.4,1.3,1.3,1.9,2.7,1.9c0.8,0,2-0.2,1.8,1.2C82.2,40.4,81.3,40.4,79.6,40.2z"/>
	<path class="st12" d="M347,21c-0.2,3.3,0.8,6.6,2.8,9.7c1.5,2.4,3.7,3.3,6.4,2.9c2.6-0.4,4-2,4.5-4.5c0.2-1.1,0.5-2.1,0.9-3.2
		c0.2-0.7,0.9-1,1.6-0.8c0.6,0.1,1,0.7,0.9,1.2c-0.4,2.7-0.3,5.4,0,8.2c0.1,1-0.7,1.5-1.5,1.1c-1.4-0.8-2.6-0.4-4,0.1
		c-4.6,1.7-11.7-0.6-14.7-4.6c-3.1-4.2-4.2-9.1-3-14c1.8-7.7,8.9-12.8,18-8.6c0.7,0.3,1,0.3,1.7-0.1c1.4-1,2.1-0.8,2.1,0.6
		c0,2.5-0.2,5-0.3,7.5c0,0.6-0.4,1-1.1,1c-0.6,0-1.1-0.3-1.2-0.9c-0.4-1.1-0.6-2.3-1-3.5c-0.8-2.5-2.5-3.8-5-4
		c-2.6-0.2-4.4,1-5.6,3.7C347.2,15.1,346.9,16.9,347,21z"/>
	<path class="st13" d="M521.9,25.6c1.3,5.2,3,10.3,4.7,15.3c0.6,1.7,1.1,3.4,3.5,3c0.8-0.1,1.4,0.6,1.3,1.5c-0.1,1-0.9,1.2-1.6,1.2
		c-3.3,0-6.6,0-9.8-0.1c-0.8,0-1.6-0.3-1.7-1.2c-0.2-0.8,0.5-1,1.1-1.4c1.6-1,1.3-2.4,0.8-4c-0.5-1.6-1.4-2-2.9-2c-0.7,0-1.3,0-2,0
		c-2.4,0.1-4.1,2.9-3.3,5.2c0.2,0.6,0.7,0.8,1.2,0.9c0.7,0.2,1.2,0.6,1.1,1.4c-0.1,0.6-0.5,1-1.1,1.1c-2.4,0.4-4.9,0.8-7.4,1.1
		c-0.8,0.1-1.4-0.6-1.6-1.4c-0.2-0.9,0.2-1.7,1-1.8c2.5-0.2,2.7-2.1,3.3-3.9c1.5-5,3.1-10,4.7-15C515.4,23.6,519.8,23.6,521.9,25.6z
		"/>
	<path class="st6" d="M623.1,47.3c0-3,0-3,2.8-3.5c0.4-0.1,0.8-0.3,1.2-0.5c0.3-4.5,1.3-9.2-2-13.1c-0.1-0.2-0.2-0.4-0.2-0.6
		c-0.8-2.1-1.5-4.2-2.7-6.2c-0.6-1-2-2.4-0.3-3.3c1.4-0.8,3-0.1,4.1,1.1c0.7,0.8,1.1,1.8,1.4,2.9c0.5,2.2,1.7,4.1,3.6,5.5
		c1.7-2.2,2.5-5,3.9-7.4c0.6-1,0.1-1.6-0.9-1.9c-0.7-0.3-1.5-0.7-1.2-1.7c0.3-0.8,0.9-1.1,1.8-1.2c2.1-0.2,4.1-0.4,6.2-0.6
		c1-0.1,2.1-0.1,2.4,1.1c0.4,1.3-0.6,2.5-1.5,2.6c-4,0.4-4.5,3.9-5.9,6.5c-1,1.8-1.4,3.9-2.7,5.6c-0.5,0.6-0.6,1.4-0.6,2.2
		c0,2.3,0,4.6-0.1,6.8c-0.1,1.5,0.2,2.6,2,2.7c0.9,0,1.8,0.4,1.7,1.6c-0.1,1.3-1.3,1.5-2.2,1.4c-2.8-0.3-5.4,0.4-8.1,0.9
		C624.5,49.1,623.7,48.6,623.1,47.3z"/>
	<path class="st14" d="M526.4,10.4c2.7-1.3,5.7-1.1,8.2-0.3c1.8,0.6,4,2.1,4.2,4.8c0.3,3.6,0.1,7.2-0.3,10.8
		c-0.1,0.8-0.3,1.6-1.3,1.6c-0.7,0-1.3-0.4-1.5-1c-1.2-3.2-4-5.3-5.8-8.1c-1.1-1.6-2.2-3.2-2.9-5C526.1,12.5,525.6,11.6,526.4,10.4z
		"/>
	<path class="st15" d="M500.3,25c-0.3-4.9-0.5-9.8-0.8-14.6c-0.1-1.3,0.3-1.7,1.6-1.8c1.9-0.2,3.6,0.3,5.2,1.4
		c1.6-1.7,3.1-0.5,4.6,0.3c1.2,0.6,1.2,1.3,0.6,2.3c-1.7,1.1-2.4,2.9-3.2,4.7c-0.5,1.4-1.6,2.3-2.8,3.2c-0.4,0.9-0.9,1.8-1.3,2.7
		C502.8,23.7,502.8,26.8,500.3,25z"/>
	<path class="st7" d="M146.1,30.9c-0.3-4.5-0.6-9.1-0.9-13.6c-0.1-1.5-0.2-2.8-1.8-3.6c-0.6-0.6-1-1.6-0.2-2
		c1.7-0.9,3.5,0.2,5.2,0.4c1.2,0.1,1.6,1.3,1.5,2.5c-0.2,1.6-0.2,3.3,1.4,4.4c0,0.8,0,1.7,0.1,2.5c0.4,1.4,0.3,2.7,0.1,4
		c-0.2,0.3-0.1,0.6,0.1,0.9c-0.5,2.2,0.8,4.8-1.4,6.6C147.9,34,147.1,32.2,146.1,30.9z"/>
	<path class="st16" d="M631,29.6c-2.6-0.8-3.7-2.9-4.3-5.2c-0.5-1.6-0.8-2.7-2.7-2.1c-0.8,0.2-1-0.7-1.9-0.9c-0.1,1.1,0.5,1.8,1,2.6
		c1.2,1.7,1.8,3.6,1.8,5.7c-1.8-2.5-3.1-5.2-4.3-8c-0.5-1.2-1-2-2.5-2c-1.4,0-2.2-1-2.1-2.4c0.1-1.5,1.3-1.6,2.5-1.5
		c0.7,0,1.3,0.1,2,0.2c2.6,0.6,5.1,1.2,7.8,1c0.7-0.1,1.7-0.1,1.9,0.9c0.2,0.8-0.4,1.6-1.1,1.8c-2.3,0.8-1.9,2.1-1.1,3.9
		C628.9,25.5,629.3,27.9,631,29.6z"/>
	<path class="st17" d="M14.7,29.8c1.9,2.5,2.4,5.5,3.8,8.2c1.2,2.2,3.1,3.8,3.8,6.4c0.5,2,0.5,2.2-1.6,2.4c-1.8,0.2-3.7-0.3-5.5,0
		c-0.8,0.1-1-0.6-0.9-1.3c0.5-3.4-0.5-6.7,0.1-10.1c0.1-0.4-0.2-0.8-0.3-1.2C14.6,32.7,14.5,31.2,14.7,29.8z"/>
	<path class="st18" d="M614.6,49.4c-0.7-0.4-1.9-0.3-1.4-1.6c1.2-3.4,0.4-6.9,0.4-10.4c0-3.3-0.4-6.5-0.6-9.7c0-0.6-0.2-1.3,0.5-1.9
		c2.2,3.1,3.7,6.3,3.7,10.4c0,4-1,7.9,0,11.9C617.3,49.8,617.2,49.8,614.6,49.4z"/>
	<path class="st5" d="M51.5,21c-1-4-1.5-8.1-1.3-12.2c0.1-1.6-0.5-3.2-0.7-4.8c1-0.6,2.1-0.6,3.2-0.5c0.6,0,0.7,0,0.8,1.5
		c0,0.5,0.2,0.5,0.5,0.6c0.6,0.3,1.3-0.1,1.9-0.1c0.8,0,1.2,1,0.6,1.7c-0.2,0.2-0.6,0.3-0.8,0.5c-1.1,0.6-1.4,1.9-2.4,2.6
		c-1.8,1.2,0.8,1.3,0.7,2.5c-0.2,1.9,0.4,3.9,0.2,5.8C53.2,19.3,53.9,21.7,51.5,21L51.5,21z"/>
	<path class="st19" d="M146.1,30.9c1.3,0.4,2.6,0.8,3.9,1.2c1.6-0.7,2.1,1,3.3,1.4l0,0c0.4,1.1,1.7,2,1.4,3.4
		c0.1,1.7-0.3,2.8-2.4,3.1c-2,0.3-4.1-0.1-6.1,1c-0.6,0.4-1.7-0.3-2-1.3c-0.3-0.7-0.1-1.3,0.6-1.6c1.5-0.6,1.5-2,1.5-3.3
		C146.4,33.5,146.2,32.2,146.1,30.9z"/>
	<path class="st6" d="M521.9,25.6c-0.5-0.1-1.1-0.2-1.5,0.1c-1.7,1.2-3.2,1.4-4.9-0.1c-0.6-0.6-1.4-0.1-2.2,0
		c-0.1-2.7,1.2-5,1.7-7.6c0.2-1.2,1.3-2,2.6-2.1c1.5-0.1,2.1,0.9,2.4,2.1C520.7,20.6,521.3,23.1,521.9,25.6z"/>
	<path class="st11" d="M131,19.7c0,0.4,0,0.8,0.1,1.3c-0.2,0.8-0.4,1.5,0.5,2c0.2,6.3,0,12.6-0.4,18.9c0,0.3-0.1,0.7-0.1,1
		c0,0.9-0.1,2-1.2,2c-0.9,0-0.8-1.2-0.8-1.9c-0.2-5.1-0.5-10.3-0.6-15.4c-0.1-2.2-1.1-4.3-0.3-6.5C128.5,19.6,129.1,18.4,131,19.7z"
		/>
	<path class="st19" d="M131,19.7c-1.1,0.1-2,0.7-2.8,1.4c-0.9-1.4-0.5-3-0.7-4.4c-0.4-2.9-0.8-5.8-1-8.8c-0.1-1.6,1-2.4,3.1-2.4
		c1.4,0,1.8,1.2,1.5,2c-1,3.1,0.2,6,0.4,9C131.6,17.7,131.5,18.7,131,19.7z"/>
	<path class="st8" d="M89.2,11c0,1.1,0,2.2,0,3.3c0,0.7-0.2,1.3-1.1,1.3c-0.6,0-1.1-0.4-1.2-1c-0.5-3.5-2.9-6-5-8.6
		c-1.2-1.5-0.9-2.2,1-2.6c2.2-0.5,3.6,1.3,5.4,2c1.2,0.4,0.6,1.9,0.8,3c0.1,0.9,0,1.7,0,2.6C89.1,11,89.2,11,89.2,11z"/>
	<path class="st1" d="M231,38.1c1.5-1.1,3.1-2.1,2.4-4.4c2-1.5,1.3-2.9-0.2-4.3c-0.6-0.6-0.1-1.1,0.3-1.7c0.7-0.9,1.4-1.9,2-2.9
		c0,0,0,0.1,0,0.1c0.4,1.2,0.4,2.3,0,3.5c0.2,2.6,0.5,5.2,0.5,7.8c0,1.3,0.1,2.1,1.7,2c0.8,0,1.2,0.4,1.3,1.2
		c0.1,0.8-0.5,1.2-1.2,1.2c-3,0.2-6,0.3-9.4-0.1C229.4,39.5,230.2,38.8,231,38.1z"/>
	<path class="st20" d="M151.3,19.1c-1.6-0.7-2.2-1.9-2.5-3.5c-0.4-1.9-2.3-3.3-4.2-3.2c-0.8,0.1-1,0.7-1.1,1.4c-1,0-1.8-0.3-1.7-1.4
		c0-1.1,0.9-1.7,1.8-1.6c2.8,0.3,5.4-0.2,8-1.2c0.6-0.3,1.3-0.1,1.6,0.7c0.4,1.1,0.7,2.3-0.4,3C149.8,14.7,150.6,16.8,151.3,19.1z"
		/>
	<path class="st21" d="M335.3,39.4c0.2,0.7,0.4,1.5,0.5,2.2c0.1,1.2-0.1,2.2,1.4,2.8c0.6,0.2,1.5,1.4,0.8,2.5
		c-0.8,1.4-2.2,1.1-3.5,1.2c-1,0-1.5-0.6-1.7-1.6c-0.2-1.8-0.3-3.7,0-5.5c0.2-1.2,0.3-2.4,0.5-3.5C335.7,36.4,334.4,39,335.3,39.4z"
		/>
	<path class="st22" d="M30.3,47.2c-0.4,0-1,0.2-1-0.4c-0.1-1.4,0.7-1.9,2-2.1c1.9-0.2,3.7-0.1,5.5,0.4c1.2,0.3,2.3,0.6,3.5,0.9
		c0.6,1.2-0.3,1.6-1.1,1.8c-2.1,0.5-4.2,0.4-6.3-0.2C32,47.4,31.2,46.8,30.3,47.2z"/>
	<path class="st23" d="M254.5,32.9c1.8,0.7,2,0.7,1.9-0.8c-0.2-1.3-0.8-2.6,1.4-3.3c-0.6,2.7,1,5.2,0,7.9c-0.6,1.7-1.2,3.2-2.9,4.1
		C254.5,38.1,254.5,35.5,254.5,32.9z"/>
	<path class="st24" d="M348.6,47c0.7-1.2,1.9-1.5,3-1.4c2.1,0,4,0.9,5.9,1.6c0.5,0.2,0.8,0.7,0.7,1.3c-0.1,0.5-0.5,0.7-0.9,0.7
		C354.4,49,351.1,49.8,348.6,47z"/>
	<path class="st25" d="M244,22.9c-0.5-3.7-0.9-7.4-1.4-11.1c-0.1-0.8,0.1-1.6,1.1-1.6c0.9,0,0.9,0.8,1,1.4c0.2,1.5,0.5,3,0.3,4.5
		C244.8,18.4,244.4,20.6,244,22.9z"/>
	<path class="st26" d="M390.3,23.2c-0.1-0.8-0.3-1.5-0.4-2.3c0-2.9-0.1-5.9-0.8-8.8c-0.2-0.8-0.4-1.7,0.4-2.7
		c1.8,1.5,3.1,3.4,4.8,5.6c-1.6,0-2-1.5-3.4-1.3c-1.5,2.4-0.2,4.9,0.1,7.4C390.5,21.7,391.3,22.8,390.3,23.2z"/>
	<path class="st16" d="M153.3,33.5c-1.5,0.5-2.4-0.3-3.3-1.4c-0.3-1.1-0.3-2.1,0.3-3.1c0.5-0.8,0.8-1.8,0.3-2.8l0,0
		c0.7-1.5,0.6-3.2,0.7-4.8C152,25.5,152.2,29.6,153.3,33.5z"/>
	<path class="st27" d="M295.5,12.7c-0.3-2.2-0.4-3.5-0.6-4.9c-0.1-0.8,0-1.6,1-1.7c0.8-0.1,1.8-0.5,2.4,0.3c0.6,0.8-0.3,1.3-0.6,2
		C297.2,9.6,296.5,10.8,295.5,12.7z"/>
	<path class="st16" d="M625.1,30.2c2.3,0.8,2.5,3.1,2.7,4.8c0.3,2.7,0.4,5.6-0.7,8.3c0.1-2.3-0.5-4.7-0.1-7c0.2-1-0.3-1.9-0.7-2.8
		C625.8,32.5,625.5,31.3,625.1,30.2z"/>
	<path class="st13" d="M390.3,23.2c0.2-0.7,0.5-1.4,0.7-2.1c1,3.6,0.9,7.3,0.6,11c-0.8,0.5-0.9-0.2-1.1-0.6
		C390.5,28.7,390.4,25.9,390.3,23.2z"/>
	<path class="st10" d="M332.9,16.1c-0.5-3.4-0.8-6.3-0.1-9.5C334.3,8.8,334.3,12.8,332.9,16.1z"/>
	<path class="st28" d="M465.7,20.8c-1.3-3.9-0.8-7.5-1.4-11.3C466,11.6,466.4,15.6,465.7,20.8z"/>
	<path class="st29" d="M500.3,25c1.6,0.1,2.3-1.8,3.8-2c-0.2,1.5-1.5,2.6-1.6,4.2c-0.1,0.7-0.6,1.1-1.4,1.1c-0.9,0-1-0.8-1-1.4
		C500.1,26.2,500.2,25.6,500.3,25z"/>
	<path class="st30" d="M493,37.5c-0.2,0-0.4,0-0.6,0c0.3-1.3,0.5-2.5,0.8-3.8c0.1-0.4,0.4-0.8,0.8-0.9c0.6-0.1,1,0.3,1.2,0.8
		c0.4,1,0.4,2.1,0.4,3.2C494.4,35.7,493.6,36.4,493,37.5L493,37.5z"/>
	<path class="st32" d="M420.1,36.8c-1,0.2-1.8,0.8-2.7,1.3c0.3-1.1,0.5-2.3,0.8-3.4c0.1-0.6,0.3-1.4,1.1-1.3
		c0.8,0.1,0.9,0.8,0.9,1.5C420.1,35.5,420.1,36.2,420.1,36.8z"/>
	<path class="st26" d="M335.3,39.4c-0.6-0.7-1-1.6-2-2c-0.2-1.2-0.3-2.5,0.2-4.5C334.7,35.5,335.2,37.4,335.3,39.4z"/>
	<path class="st34" d="M164.9,8.4c-1.2-1.2-1.1-2.6-1.4-3.8c-0.2-0.6,0.2-1,0.9-1.1c0.5,0,0.8,0.3,0.8,0.8
		C165.2,5.7,165.4,6.9,164.9,8.4z"/>
	<path class="st35" d="M51.4,21c1.4-0.3,1.5-1.9,2.6-2.5C54,19.3,54,20.2,53.9,21c-0.1,0.7-0.5,1.3-1.3,1.3
		C51.8,22.3,51.6,21.6,51.4,21z"/>
	<path class="st19" d="M131.5,23c-0.5,0.5-0.9,1.1-1.5,1.8c-0.3-1.6-1-3.1,1-3.8C131.6,21.6,131.6,22.3,131.5,23z"/>
	<path class="st36" d="M428,49.9c1.7-0.7,2.6-0.8,3.7,0.2C430.6,50.8,429.6,50.7,428,49.9z"/>
	<path class="st37" d="M652.7,17.2c-0.6,0-0.7-0.4-0.8-0.8c-0.3-1-0.1-1.7,1.1-1.8c0.4,0,0.9,0.1,1,0.6
		C653.9,16,653.4,16.7,652.7,17.2z"/>
	<path class="st38" d="M390.6,31.5c0.4,0.2,0.7,0.4,1.1,0.6c0.2,1.6,0.2,3.1-0.4,4.7C391.1,35,390.8,33.3,390.6,31.5z"/>
	<path class="st16" d="M154.7,36.9c-1.6-0.7-1.5-2-1.4-3.4C154.5,34.3,156,35,154.7,36.9z"/>
	<path class="st39" d="M15.1,7.9c0.2,1.9,0.4,3.2-0.1,4.5C14.6,11,13.5,9.8,15.1,7.9z"/>
	<path class="st40" d="M190.1,26.3c0-0.7-0.3-1.5,0.9-2.1c0.8,1.3,0,2.7,0.3,4C190.9,27.6,190.5,27,190.1,26.3z"/>
	<path class="st41" d="M505.4,20.3c0.3-1.6,1.9-2.1,2.8-3.2C508,18.9,507.2,20,505.4,20.3z"/>
	<path class="st42" d="M42.2,45.9c0.4,0,0.8,0.1,1.2,0.1c1.5,0.2,1.4,0.9,0.6,1.9C43.5,47.2,41.7,47.6,42.2,45.9z"/>
	<path class="st43" d="M526.4,10.4c0.2,0.9,0.5,1.9,0.7,2.8C525.1,12.3,525,11.8,526.4,10.4z"/>
	<path class="st44" d="M634,11.5c-0.1,0.2-0.3,0.4-0.6,0.1c-0.2-0.1-0.2-0.5-0.2-0.8c0-0.1,0.3-0.3,0.5-0.2
		C634,10.7,634.2,10.9,634,11.5z"/>
	<path class="st3" d="M235.5,28.4c0-1.2,0-2.3,0-3.5C236,26.1,236,27.3,235.5,28.4z"/>
	<path class="st47" d="M48.8,43.4c-0.3,0.3-0.8,0.8-0.9,0.6C47.6,43.2,48.4,43.6,48.8,43.4L48.8,43.4z"/>
	<path class="st30" d="M493,37.5c0.2,0.1,0.4,0.2,0.6,0.3c0.4,0.2,0.8,0.5,0.5,1c-0.1,0.1-0.4,0.3-0.5,0.3c-0.6-0.1-0.6-0.5-0.6-1
		C492.9,37.9,493,37.7,493,37.5C493,37.5,493,37.5,493,37.5z"/>
	<path class="st35" d="M29.1,25c1,0.7,0.8,1.7,0.6,2.7C29.2,26.8,29.1,25.9,29.1,25z"/>
	<path class="st47" d="M115.1,32.9c-0.4,0.6-0.8,1.3-1.3,1.8c-2.8,3-6.6,2.7-8.9-0.6c-1.2-1.6-1.7-3.5-2.1-5.4
		c-0.9-4.4-0.8-8.6,1-12.8c1.6-3.8,5-4.9,8.4-2.6c0.4,0.3,0.8,0.7,1.2,1.1c2.3,1.1,1.9,3.4,2.5,5.3l0,0
		C117.3,24.2,116.7,28.6,115.1,32.9z"/>
	<path class="st48" d="M115.1,32.9c1.2-4.3,0.7-8.7,0.6-13.1c0.6,0.9,2.5,0.6,2,2.7c-0.2,0.8,0.4,1.7-0.2,2.9
		c-0.7,1.4-0.8,3.1-1.1,4.7C116.3,31.1,116.1,32.2,115.1,32.9z"/>
	<path class="st48" d="M115.8,19.8c-1.4-1.5-1.3-3.7-2.5-5.3C116.6,16.1,116.6,16.1,115.8,19.8z"/>
	<path class="st49" d="M67.4,23.8c0.7,0,1.7,2.1,1.6,3.3c-0.1,1.1-0.6,1.9-1.8,1.8c-1.2-0.1-1.7-0.7-1.6-1.9
		C65.8,25.3,66.6,23.8,67.4,23.8z"/>
	<path class="st35" d="M514.6,32.8c0.3-1,0.3-2.5,1.7-2.3c1.1,0.2,1.3,1.7,1.2,2.8c0,1-0.7,1.5-1.8,1.5
		C514.4,34.7,514.7,33.6,514.6,32.8z"/>
	<path class="st16" d="M150.6,26.3c-0.3,0.5-0.5,1.2-1.3,1.3c-0.5-0.2-0.5-0.7-0.5-1.1c0-0.6-0.4-1.5,0.5-1.7
		C150.5,24.5,150.1,25.9,150.6,26.3C150.6,26.3,150.6,26.3,150.6,26.3z"/>
</g>
</svg>
